<svg t="1695375281576" class="icon" viewBox="0 0 1024 1024" version="1.1" xmlns="http://www.w3.org/2000/svg" p-id="7138" width="200" height="200"><path d="M503.975184 229.877551l-118.282449 441.490286a41.795918 41.795918 0 1 1-80.749715-21.629388L417.436735 229.877551H219.428571a41.795918 41.795918 0 1 1 0-83.591837h480.653062a41.795918 41.795918 0 1 1 0 83.591837h-196.106449z m294.912 451.542204l66.497306-66.497306a31.346939 31.346939 0 0 1 44.324571 44.303673l-66.497306 66.518205 66.497306 66.497306a31.346939 31.346939 0 1 1-44.324571 44.324571l-66.497306-66.497306-66.497306 66.497306a31.346939 31.346939 0 1 1-44.324572-44.324571l66.497306-66.497306-66.497306-66.497307a31.346939 31.346939 0 0 1 44.303674-44.324571l66.518204 66.497306zM125.387755 794.122449h438.857143a31.346939 31.346939 0 0 1 0 62.693878h-438.857143a31.346939 31.346939 0 0 1 0-62.693878z" fill="#191F25" p-id="7139"></path></svg>