<svg t="1695366586283" class="icon" viewBox="0 0 1024 1024" version="1.1" xmlns="http://www.w3.org/2000/svg" p-id="2471" width="200" height="200"><path d="M256 128a42.666667 42.666667 0 0 1 42.666667-42.666667h426.666666a42.666667 42.666667 0 1 1 0 85.333334h-170.666666v426.666666a42.666667 42.666667 0 1 1-85.333334 0V170.666667H298.666667a42.666667 42.666667 0 0 1-42.666667-42.666667z m-12.501333 481.834667a42.666667 42.666667 0 0 1 0 60.330666L188.330667 725.333333h647.338666l-55.168-55.168a42.666667 42.666667 0 0 1 60.330667-60.330666l128 128a42.666667 42.666667 0 0 1 0 60.330666l-128 128a42.666667 42.666667 0 0 1-60.330667-60.330666L835.669333 810.666667H188.330667l55.168 55.168a42.666667 42.666667 0 1 1-60.330667 60.330666l-128-128a42.666667 42.666667 0 0 1 0-60.330666l128-128a42.666667 42.666667 0 0 1 60.330667 0z" p-id="2472"></path></svg>